<svg width="18" height="18" viewBox="0 0 18 18" fill="none" xmlns="http://www.w3.org/2000/svg">
<path d="M10.2897 18C10.1184 18 9.95175 17.9474 9.81472 17.85L6.64805 15.6C6.54973 15.5301 6.46993 15.4396 6.41496 15.3354C6.36 15.2313 6.33139 15.1164 6.33139 15V10.785L0.777052 4.86525C0.38258 4.44366 0.125019 3.92311 0.0353235 3.36618C-0.0543719 2.80924 0.0276159 2.23961 0.271433 1.72576C0.515249 1.21191 0.91052 0.775694 1.40974 0.469549C1.90895 0.163405 2.49087 0.000355814 3.08555 0L14.3272 0C14.9218 0.000660788 15.5036 0.163979 16.0026 0.47033C16.5017 0.776681 16.8967 1.21303 17.1402 1.72694C17.3838 2.24085 17.4655 2.81046 17.3756 3.36731C17.2857 3.92416 17.0279 4.44457 16.6333 4.866L11.0814 10.785V17.25C11.0814 17.4489 10.998 17.6397 10.8495 17.7803C10.701 17.921 10.4997 18 10.2897 18Z" fill="#F9F9F9"/>
</svg>
