<svg width="18" height="18" viewBox="0 0 18 18" fill="none" xmlns="http://www.w3.org/2000/svg">
<g clip-path="url(#clip0_1_382)">
<path d="M12.75 0H5.25C4.2558 0.00119089 3.30267 0.396661 2.59967 1.09966C1.89666 1.80267 1.50119 2.7558 1.5 3.75V14.25C1.50119 15.2442 1.89666 16.1973 2.59967 16.9003C3.30267 17.6033 4.2558 17.9988 5.25 18H12.75C13.7442 17.9988 14.6973 17.6033 15.4003 16.9003C16.1033 16.1973 16.4988 15.2442 16.5 14.25V3.75C16.4988 2.7558 16.1033 1.80267 15.4003 1.09966C14.6973 0.396661 13.7442 0.00119089 12.75 0V0ZM5.25 1.5H12.75C13.3467 1.5 13.919 1.73705 14.341 2.15901C14.7629 2.58097 15 3.15326 15 3.75V8.25H3V3.75C3 3.15326 3.23705 2.58097 3.65901 2.15901C4.08097 1.73705 4.65326 1.5 5.25 1.5V1.5ZM12.75 16.5H5.25C4.65326 16.5 4.08097 16.2629 3.65901 15.841C3.23705 15.419 3 14.8467 3 14.25V9.75H15V14.25C15 14.8467 14.7629 15.419 14.341 15.841C13.919 16.2629 13.3467 16.5 12.75 16.5Z" fill="#F9F9F9"/>
<path d="M8.25 5.24999H9.74999C9.94891 5.24999 10.1397 5.17098 10.2803 5.03033C10.421 4.88967 10.5 4.69891 10.5 4.5C10.5 4.30109 10.421 4.11032 10.2803 3.96967C10.1397 3.82902 9.94891 3.75 9.74999 3.75H8.25C8.05109 3.75 7.86032 3.82902 7.71967 3.96967C7.57902 4.11032 7.5 4.30109 7.5 4.5C7.5 4.69891 7.57902 4.88967 7.71967 5.03033C7.86032 5.17098 8.05109 5.24999 8.25 5.24999Z" fill="#F9F9F9"/>
<path d="M9.74999 12.75H8.25C8.05109 12.75 7.86032 12.829 7.71967 12.9697C7.57902 13.1103 7.5 13.3011 7.5 13.5C7.5 13.6989 7.57902 13.8897 7.71967 14.0303C7.86032 14.171 8.05109 14.25 8.25 14.25H9.74999C9.94891 14.25 10.1397 14.171 10.2803 14.0303C10.421 13.8897 10.5 13.6989 10.5 13.5C10.5 13.3011 10.421 13.1103 10.2803 12.9697C10.1397 12.829 9.94891 12.75 9.74999 12.75Z" fill="#F9F9F9"/>
</g>
<defs>
<clipPath id="clip0_1_382">
<rect width="18" height="18" fill="white"/>
</clipPath>
</defs>
</svg>
